<svg width="563" height="776" viewBox="0 0 563 776" fill="none" xmlns="http://www.w3.org/2000/svg">
<g opacity="0.05" clip-path="url(#clip0_1_11586)">
<path d="M471.872 646.375H528.87V779.674H471.872V646.375Z" fill="#333333"/>
<path d="M502.962 639.649H528.87V647.237H502.962V639.649Z" fill="#333333"/>
<path d="M513.843 635.338H528.87V639.649H513.843V635.338Z" fill="#333333"/>
<path opacity="0.06" d="M495.707 655.687H505.034V662.584H495.707V655.687Z" fill="white"/>
<path opacity="0.12" d="M495.707 672.759H505.034V679.656H495.707V672.759Z" fill="white"/>
<path opacity="0.19" d="M495.707 706.903H505.034V713.8H495.707V706.903Z" fill="white"/>
<path opacity="0.14" d="M495.707 741.047H505.034V747.944H495.707V741.047Z" fill="white"/>
<path opacity="0.1" d="M495.707 758.119H505.034V765.016H495.707V758.119Z" fill="white"/>
<path d="M505.207 696.383H583.276V778.639H505.207V696.383Z" fill="#333333"/>
<path d="M517.47 689.14H570.841V724.664H517.47V689.14Z" fill="#333333"/>
<path d="M243.881 721.388H321.951V800.885H243.881V721.388Z" fill="#333333"/>
<path d="M256.144 714.318H309.515V748.634H256.144V714.318Z" fill="#333333"/>
<path d="M413.147 557.221H500.371V778.467H413.147V557.221Z" fill="#333333"/>
<path opacity="0.46" d="M474.981 567.223H496.053V571.189H474.981V567.223Z" fill="#E6E6E6"/>
<path opacity="0.34" d="M446.136 567.223H467.208V571.189H446.136V567.223Z" fill="#E6E6E6"/>
<path opacity="0.52" d="M417.465 567.223H438.537V571.189H417.465V567.223Z" fill="#E6E6E6"/>
<path opacity="0.54" d="M474.981 576.362H496.053V580.328H474.981V576.362Z" fill="#E6E6E6"/>
<path opacity="0.3" d="M446.136 576.362H467.208V580.328H446.136V576.362Z" fill="#E6E6E6"/>
<path opacity="0.06" d="M417.465 576.362H438.537V580.328H417.465V576.362Z" fill="#E6E6E6"/>
<path opacity="0.15" d="M474.981 585.502H496.053V589.468H474.981V585.502Z" fill="#E6E6E6"/>
<path opacity="0.42" d="M446.136 585.502H467.208V589.468H446.136V585.502Z" fill="#E6E6E6"/>
<path opacity="0.48" d="M417.465 585.502H438.537V589.468H417.465V585.502Z" fill="#E6E6E6"/>
<path opacity="0.18" d="M474.981 594.641H496.053V598.607H474.981V594.641Z" fill="#E6E6E6"/>
<path opacity="0.28" d="M417.465 594.641H438.537V598.607H417.465V594.641Z" fill="#E6E6E6"/>
<path opacity="0.29" d="M474.981 603.781H496.053V607.747H474.981V603.781Z" fill="#E6E6E6"/>
<path opacity="0.28" d="M446.136 603.781H467.208V607.747H446.136V603.781Z" fill="#E6E6E6"/>
<path opacity="0.56" d="M417.465 603.781H438.537V607.747H417.465V603.781Z" fill="#E6E6E6"/>
<path opacity="0.41" d="M474.981 612.92H496.053V616.887H474.981V612.92Z" fill="#E6E6E6"/>
<path opacity="0.16" d="M446.136 612.92H467.208V616.887H446.136V612.92Z" fill="#E6E6E6"/>
<path opacity="0.4" d="M417.465 612.92H438.537V616.887H417.465V612.92Z" fill="#E6E6E6"/>
<path opacity="0.1" d="M474.981 622.06H496.053V626.026H474.981V622.06Z" fill="#E6E6E6"/>
<path opacity="0.17" d="M446.136 622.06H467.208V626.026H446.136V622.06Z" fill="#E6E6E6"/>
<path opacity="0.08" d="M417.465 622.06H438.537V626.026H417.465V622.06Z" fill="#E6E6E6"/>
<path opacity="0.49" d="M474.981 631.199H496.053V635.166H474.981V631.199Z" fill="#E6E6E6"/>
<path opacity="0.58" d="M446.136 631.199H467.208V635.166H446.136V631.199Z" fill="#E6E6E6"/>
<path opacity="0.58" d="M417.465 631.199H438.537V635.166H417.465V631.199Z" fill="#E6E6E6"/>
<path opacity="0.26" d="M474.981 640.339H496.053V644.305H474.981V640.339Z" fill="#E6E6E6"/>
<path opacity="0.37" d="M446.136 640.339H467.208V644.305H446.136V640.339Z" fill="#E6E6E6"/>
<path opacity="0.34" d="M417.465 640.339H438.537V644.305H417.465V640.339Z" fill="#E6E6E6"/>
<path opacity="0.55" d="M474.981 649.479H496.053V653.445H474.981V649.479Z" fill="#E6E6E6"/>
<path opacity="0.12" d="M446.136 649.479H467.208V653.445H446.136V649.479Z" fill="#E6E6E6"/>
<path opacity="0.6" d="M417.465 649.479H438.537V653.445H417.465V649.479Z" fill="#E6E6E6"/>
<path opacity="0.02" d="M474.981 658.618H496.053V662.584H474.981V658.618Z" fill="#E6E6E6"/>
<path opacity="0.28" d="M446.136 658.618H467.208V662.584H446.136V658.618Z" fill="#E6E6E6"/>
<path opacity="0.21" d="M417.465 658.618H438.537V662.584H417.465V658.618Z" fill="#E6E6E6"/>
<path opacity="0.57" d="M474.981 667.758H496.053V671.724H474.981V667.758Z" fill="#E6E6E6"/>
<path opacity="0.38" d="M446.136 667.758H467.208V671.724H446.136V667.758Z" fill="#E6E6E6"/>
<path opacity="0.25" d="M417.465 667.758H438.537V671.724H417.465V667.758Z" fill="#E6E6E6"/>
<path opacity="0.15" d="M474.981 676.897H496.053V680.863H474.981V676.897Z" fill="#E6E6E6"/>
<path opacity="0.47" d="M446.136 676.897H467.208V680.863H446.136V676.897Z" fill="#E6E6E6"/>
<path opacity="0.3" d="M417.465 676.897H438.537V680.863H417.465V676.897Z" fill="#E6E6E6"/>
<path opacity="0.4" d="M474.981 686.037H496.053V690.003H474.981V686.037Z" fill="#E6E6E6"/>
<path opacity="0.39" d="M446.136 686.037H467.208V690.003H446.136V686.037Z" fill="#E6E6E6"/>
<path opacity="0.24" d="M417.465 686.037H438.537V690.003H417.465V686.037Z" fill="#E6E6E6"/>
<path opacity="0.46" d="M474.981 695.176H496.053V699.142H474.981V695.176Z" fill="#E6E6E6"/>
<path opacity="0.22" d="M446.136 695.176H467.208V699.142H446.136V695.176Z" fill="#E6E6E6"/>
<path opacity="0.11" d="M417.465 695.176H438.537V699.142H417.465V695.176Z" fill="#E6E6E6"/>
<path opacity="0.11" d="M446.136 704.316H467.208V708.282H446.136V704.316Z" fill="#E6E6E6"/>
<path opacity="0.02" d="M417.465 704.316H438.537V708.282H417.465V704.316Z" fill="#E6E6E6"/>
<path opacity="0.27" d="M474.981 713.456H496.053V717.422H474.981V713.456Z" fill="#E6E6E6"/>
<path opacity="0.21" d="M446.136 713.456H467.208V717.422H446.136V713.456Z" fill="#E6E6E6"/>
<path opacity="0.49" d="M417.465 713.456H438.537V717.422H417.465V713.456Z" fill="#E6E6E6"/>
<path opacity="0.6" d="M474.981 722.595H496.053V726.561H474.981V722.595Z" fill="#E6E6E6"/>
<path opacity="0.31" d="M446.136 722.595H467.208V726.561H446.136V722.595Z" fill="#E6E6E6"/>
<path opacity="0.22" d="M417.465 722.595H438.537V726.561H417.465V722.595Z" fill="#E6E6E6"/>
<path opacity="0.54" d="M474.981 731.734H496.053V735.701H474.981V731.734Z" fill="#E6E6E6"/>
<path opacity="0.6" d="M446.136 731.734H467.208V735.701H446.136V731.734Z" fill="#E6E6E6"/>
<path opacity="0.08" d="M417.465 731.734H438.537V735.701H417.465V731.734Z" fill="#E6E6E6"/>
<path opacity="0.55" d="M446.136 740.874H467.208V744.84H446.136V740.874Z" fill="#E6E6E6"/>
<path d="M417.465 740.874H438.537V744.84H417.465V740.874Z" fill="#E6E6E6"/>
<path opacity="0.6" d="M473.599 567.223H474.981V744.84H473.599V567.223Z" fill="#E6E6E6"/>
<path opacity="0.6" d="M438.537 567.223H439.919V744.84H438.537V567.223Z" fill="#E6E6E6"/>
<path d="M369.621 557.221H413.147V778.467H369.621V557.221Z" fill="#4D4D4D"/>
<path opacity="0.69" d="M376.012 567.223H408.829V571.189H376.012V567.223Z" fill="#E6E6E6"/>
<path opacity="0.79" d="M376.012 576.362H408.829V580.328H376.012V576.362Z" fill="#E6E6E6"/>
<path opacity="0.19" d="M376.012 585.502H408.829V589.468H376.012V585.502Z" fill="#E6E6E6"/>
<path opacity="0.88" d="M376.012 594.641H408.829V598.607H376.012V594.641Z" fill="#E6E6E6"/>
<path opacity="0.5" d="M376.012 603.781H408.829V607.747H376.012V603.781Z" fill="#E6E6E6"/>
<path opacity="0.25" d="M376.012 612.92H408.829V616.887H376.012V612.92Z" fill="#E6E6E6"/>
<path opacity="0.91" d="M376.012 622.06H408.829V626.026H376.012V622.06Z" fill="#E6E6E6"/>
<path opacity="0.02" d="M376.012 631.199H408.829V635.166H376.012V631.199Z" fill="#E6E6E6"/>
<path opacity="0.53" d="M376.012 640.339H408.829V644.305H376.012V640.339Z" fill="#E6E6E6"/>
<path opacity="0.65" d="M376.012 649.479H408.829V653.445H376.012V649.479Z" fill="#E6E6E6"/>
<path d="M376.012 658.618H408.829V662.584H376.012V658.618Z" fill="#E6E6E6"/>
<path opacity="0.8" d="M376.012 667.758H408.829V671.724H376.012V667.758Z" fill="#E6E6E6"/>
<path opacity="0.82" d="M376.012 676.897H408.829V680.863H376.012V676.897Z" fill="#E6E6E6"/>
<path opacity="0.75" d="M376.012 686.037H408.829V690.003H376.012V686.037Z" fill="#E6E6E6"/>
<path opacity="0.31" d="M376.012 695.176H408.829V699.142H376.012V695.176Z" fill="#E6E6E6"/>
<path opacity="0.22" d="M376.012 704.316H408.829V708.282H376.012V704.316Z" fill="#E6E6E6"/>
<path opacity="0.43" d="M376.012 713.456H408.829V717.422H376.012V713.456Z" fill="#E6E6E6"/>
<path opacity="0.68" d="M376.012 722.595H408.829V726.561H376.012V722.595Z" fill="#E6E6E6"/>
<path opacity="0.38" d="M376.012 731.734H408.829V735.701H376.012V731.734Z" fill="#E6E6E6"/>
<path opacity="0.84" d="M376.012 740.874H408.829V744.84H376.012V740.874Z" fill="#E6E6E6"/>
<path d="M484.999 545.494V557.221H428.519V545.494H484.999ZM472.39 553.427H478.262V549.461H472.39V553.427ZM463.236 553.427H468.936V549.461H463.236V553.427ZM453.909 553.427H459.609V549.461H453.909V553.427ZM444.582 553.427H450.454V549.461H444.582V553.427ZM435.255 553.427H441.128V549.461H435.255V553.427Z" fill="#333333"/>
<path d="M418.156 549.461H419.71V553.427H418.156V549.461Z" fill="#333333"/>
<path d="M428.519 545.494V557.221H401.92V545.494H428.519ZM418.156 553.427H423.856V549.461H418.156V553.427ZM405.893 553.427H411.592V549.461H405.893V553.427Z" fill="#4D4D4D"/>
<path d="M406.065 549.461H407.62V553.427H406.065V549.461Z" fill="#333333"/>
<path d="M401.575 793.469H519.024L401.575 706.902V793.469Z" fill="#333333"/>
<path d="M538.887 571.016H565.832V776.57H538.887V571.016Z" fill="#666666"/>
<path d="M560.477 577.052H563.932V773.811H560.477V577.052Z" fill="#E6E6E6"/>
<path d="M553.741 577.052H557.196V773.811H553.741V577.052Z" fill="#E6E6E6"/>
<path d="M540.615 577.052H544.069V773.811H540.615V577.052Z" fill="#E6E6E6"/>
<path d="M547.005 577.052H550.46V773.811H547.005V577.052Z" fill="#E6E6E6"/>
<path d="M545.623 534.975H569.459V571.016H545.623V534.975Z" fill="#666666"/>
<path d="M54.5796 497.037H68.3971V537.562H54.5796V497.037Z" fill="#4D4D4D"/>
<path d="M68.5701 497.037H82.3877V537.562H68.5701V497.037Z" fill="#333333"/>
<path d="M40.7618 497.037H54.5796V537.562H40.7618V497.037Z" fill="#666666"/>
<path d="M0 565.498H39.0347V797.091H0V565.498Z" fill="#666666"/>
<path d="M84.9785 565.498H118.832V797.091H84.9785V565.498Z" fill="#333333"/>
<path d="M39.0348 565.498H84.9784V797.091H39.0348V565.498Z" fill="#4D4D4D"/>
<path opacity="0.4" d="M109.159 572.396H114.168V793.987H109.159V572.396Z" fill="#E6E6E6"/>
<path opacity="0.4" d="M99.3141 572.396H104.323V793.987H99.3141V572.396Z" fill="#E6E6E6"/>
<path opacity="0.4" d="M89.469 572.396H94.478V793.987H89.469V572.396Z" fill="#E6E6E6"/>
<path d="M31.2623 572.396H36.2712V793.987H31.2623V572.396Z" fill="#E6E6E6"/>
<path d="M21.4172 572.396H26.4263V793.987H21.4172V572.396Z" fill="#E6E6E6"/>
<path d="M2.59082 572.396H7.59973V793.987H2.59082V572.396Z" fill="#E6E6E6"/>
<path d="M11.7449 572.396H16.7539V793.987H11.7449V572.396Z" fill="#E6E6E6"/>
<path d="M79.106 793.987H44.5618V572.396H79.106V793.987ZM73.7516 576.189H50.2615V790.193H73.7516V576.189Z" fill="#E6E6E6"/>
<path d="M69.4336 786.572H54.5796V579.811H69.4336V786.572ZM64.252 584.639H62.352H61.4884H59.5885V781.743H61.4884H62.352H64.252V584.639Z" fill="#E6E6E6"/>
<path d="M61.4884 584.639H62.3519V781.743H61.4884V584.639Z" fill="#E6E6E6"/>
<path d="M44.2163 524.973H78.7605V565.498H44.2163V524.973Z" fill="#4D4D4D"/>
<path d="M44.2163 524.973H78.7605V565.498H44.2163V524.973Z" fill="#4D4D4D"/>
<path d="M9.67236 524.973H44.2163V565.498H9.67236V524.973Z" fill="#666666"/>
<path d="M78.5876 524.973H113.132V565.498H78.5876V524.973Z" fill="#333333"/>
<path d="M40.5894 497.037H82.3877L68.3973 504.453H54.5797L40.5894 497.037Z" fill="#808080"/>
<path d="M154.239 597.572H248.717V628.957H154.239V597.572Z" fill="#E6E6E6"/>
<path d="M211.582 597.572H248.717V628.957H211.582V597.572Z" fill="#B3B3B3"/>
<path d="M211.582 629.129H284.989V781.57H211.582V629.129Z" fill="#333333"/>
<path d="M96.8961 629.129H211.582V781.57H96.8961V629.129Z" fill="#4D4D4D"/>
<path d="M220.564 613.609H277.043V629.129H220.564V613.609Z" fill="#333333"/>
<path d="M113.995 613.609H194.656V629.129H113.995V613.609Z" fill="#4D4D4D"/>
<path d="M179.284 585.673H211.582V597.572H179.284V585.673Z" fill="#E6E6E6"/>
<path d="M195.519 573.602H211.582V585.501H195.519V573.602Z" fill="#4D4D4D"/>
<path d="M211.755 573.602H227.818V585.501H211.755V573.602Z" fill="#333333"/>
<path d="M211.582 585.673H236.281V597.572H211.582V585.673Z" fill="#B3B3B3"/>
<path d="M212.619 573.602L211.582 546.011L210.719 573.602H212.619Z" fill="#333333"/>
<path opacity="0.12" d="M261.844 635.337H267.889V641.373H261.844V635.337Z" fill="white"/>
<path opacity="0.25" d="M253.553 635.337H259.599V641.373H253.553V635.337Z" fill="white"/>
<path opacity="0.36" d="M245.263 635.337H251.308V641.373H245.263V635.337Z" fill="white"/>
<path opacity="0.12" d="M236.972 635.337H243.018V641.373H236.972V635.337Z" fill="white"/>
<path opacity="0.14" d="M228.682 635.337H234.727V641.373H228.682V635.337Z" fill="white"/>
<path opacity="0.28" d="M261.844 643.269H267.889V649.305H261.844V643.269Z" fill="white"/>
<path opacity="0.4" d="M253.553 643.269H259.599V649.305H253.553V643.269Z" fill="white"/>
<path opacity="0.16" d="M245.263 643.269H251.308V649.305H245.263V643.269Z" fill="white"/>
<path opacity="0.17" d="M228.682 643.269H234.727V649.305H228.682V643.269Z" fill="white"/>
<path opacity="0.27" d="M261.844 651.202H267.889V657.237H261.844V651.202Z" fill="white"/>
<path opacity="0.45" d="M253.553 651.202H259.599V657.237H253.553V651.202Z" fill="white"/>
<path opacity="0.45" d="M245.263 651.202H251.308V657.237H245.263V651.202Z" fill="white"/>
<path opacity="0.48" d="M236.972 651.202H243.018V657.237H236.972V651.202Z" fill="white"/>
<path opacity="0.25" d="M228.682 651.202H234.727V657.237H228.682V651.202Z" fill="white"/>
<path opacity="0.28" d="M261.844 659.134H267.889V665.17H261.844V659.134Z" fill="white"/>
<path opacity="0.13" d="M253.553 659.134H259.599V665.17H253.553V659.134Z" fill="white"/>
<path opacity="0.07" d="M245.263 659.134H251.308V665.17H245.263V659.134Z" fill="white"/>
<path opacity="0.39" d="M236.972 659.134H243.018V665.17H236.972V659.134Z" fill="white"/>
<path opacity="0.47" d="M228.682 659.134H234.727V665.17H228.682V659.134Z" fill="white"/>
<path opacity="0.28" d="M261.844 667.067H267.889V673.102H261.844V667.067Z" fill="white"/>
<path opacity="0.2" d="M253.553 667.067H259.599V673.102H253.553V667.067Z" fill="white"/>
<path opacity="0.04" d="M245.263 667.067H251.308V673.102H245.263V667.067Z" fill="white"/>
<path opacity="0.43" d="M236.972 667.067H243.018V673.102H236.972V667.067Z" fill="white"/>
<path opacity="0.48" d="M228.682 667.067H234.727V673.102H228.682V667.067Z" fill="white"/>
<path opacity="0.28" d="M261.844 674.999H267.889V681.035H261.844V674.999Z" fill="white"/>
<path opacity="0.19" d="M253.553 674.999H259.599V681.035H253.553V674.999Z" fill="white"/>
<path opacity="0.01" d="M245.263 674.999H251.308V681.035H245.263V674.999Z" fill="white"/>
<path opacity="0.27" d="M236.972 674.999H243.018V681.035H236.972V674.999Z" fill="white"/>
<path opacity="0.24" d="M228.682 674.999H234.727V681.035H228.682V674.999Z" fill="white"/>
<path opacity="0.07" d="M261.844 683.104H267.889V689.14H261.844V683.104Z" fill="white"/>
<path opacity="0.25" d="M253.553 683.104H259.599V689.14H253.553V683.104Z" fill="white"/>
<path opacity="0.26" d="M245.263 683.104H251.308V689.14H245.263V683.104Z" fill="white"/>
<path opacity="0.39" d="M236.972 683.104H243.018V689.14H236.972V683.104Z" fill="white"/>
<path opacity="0.22" d="M228.682 683.104H234.727V689.14H228.682V683.104Z" fill="white"/>
<path opacity="0.15" d="M261.844 691.036H267.889V697.072H261.844V691.036Z" fill="white"/>
<path opacity="0.23" d="M253.553 691.036H259.599V697.072H253.553V691.036Z" fill="white"/>
<path opacity="0.05" d="M245.263 691.036H251.308V697.072H245.263V691.036Z" fill="white"/>
<path opacity="0.2" d="M236.972 691.036H243.018V697.072H236.972V691.036Z" fill="white"/>
<path opacity="0.31" d="M228.682 691.036H234.727V697.072H228.682V691.036Z" fill="white"/>
<path opacity="0.15" d="M261.844 698.969H267.889V705.004H261.844V698.969Z" fill="white"/>
<path opacity="0.33" d="M253.553 698.969H259.599V705.004H253.553V698.969Z" fill="white"/>
<path opacity="0.46" d="M245.263 698.969H251.308V705.004H245.263V698.969Z" fill="white"/>
<path opacity="0.25" d="M236.972 698.969H243.018V705.004H236.972V698.969Z" fill="white"/>
<path opacity="0.43" d="M228.682 698.969H234.727V705.004H228.682V698.969Z" fill="white"/>
<path opacity="0.4" d="M261.844 706.901H267.889V712.937H261.844V706.901Z" fill="white"/>
<path opacity="0.39" d="M253.553 706.901H259.599V712.937H253.553V706.901Z" fill="white"/>
<path opacity="0.01" d="M245.263 706.901H251.308V712.937H245.263V706.901Z" fill="white"/>
<path opacity="0.12" d="M236.972 706.901H243.018V712.937H236.972V706.901Z" fill="white"/>
<path opacity="0.07" d="M228.682 706.901H234.727V712.937H228.682V706.901Z" fill="white"/>
<path opacity="0.07" d="M261.844 714.834H267.889V720.87H261.844V714.834Z" fill="white"/>
<path opacity="0.02" d="M253.553 714.834H259.599V720.87H253.553V714.834Z" fill="white"/>
<path opacity="0.12" d="M245.263 714.834H251.308V720.87H245.263V714.834Z" fill="white"/>
<path opacity="0.23" d="M236.972 714.834H243.018V720.87H236.972V714.834Z" fill="white"/>
<path opacity="0.26" d="M228.682 714.834H234.727V720.87H228.682V714.834Z" fill="white"/>
<path opacity="0.27" d="M261.844 722.766H267.889V728.802H261.844V722.766Z" fill="white"/>
<path opacity="0.38" d="M253.553 722.766H259.599V728.802H253.553V722.766Z" fill="white"/>
<path opacity="0.05" d="M245.263 722.766H251.308V728.802H245.263V722.766Z" fill="white"/>
<path opacity="0.45" d="M236.972 722.766H243.018V728.802H236.972V722.766Z" fill="white"/>
<path opacity="0.15" d="M228.682 722.766H234.727V728.802H228.682V722.766Z" fill="white"/>
<path opacity="0.06" d="M261.844 730.699H267.889V736.734H261.844V730.699Z" fill="white"/>
<path opacity="0.47" d="M253.553 730.699H259.599V736.734H253.553V730.699Z" fill="white"/>
<path opacity="0.15" d="M245.263 730.699H251.308V736.734H245.263V730.699Z" fill="white"/>
<path opacity="0.44" d="M236.972 730.699H243.018V736.734H236.972V730.699Z" fill="white"/>
<path opacity="0.14" d="M228.682 730.699H234.727V736.734H228.682V730.699Z" fill="white"/>
<path opacity="0.15" d="M261.844 738.631H267.889V744.667H261.844V738.631Z" fill="white"/>
<path opacity="0.43" d="M253.553 738.631H259.599V744.667H253.553V738.631Z" fill="white"/>
<path opacity="0.07" d="M245.263 738.631H251.308V744.667H245.263V738.631Z" fill="white"/>
<path opacity="0.47" d="M236.972 738.631H243.018V744.667H236.972V738.631Z" fill="white"/>
<path opacity="0.11" d="M228.682 738.631H234.727V744.667H228.682V738.631Z" fill="white"/>
<path opacity="0.07" d="M261.844 746.564H267.889V752.599H261.844V746.564Z" fill="white"/>
<path opacity="0.34" d="M253.553 746.564H259.599V752.599H253.553V746.564Z" fill="white"/>
<path opacity="0.5" d="M245.263 746.564H251.308V752.599H245.263V746.564Z" fill="white"/>
<path opacity="0.36" d="M236.972 746.564H243.018V752.599H236.972V746.564Z" fill="white"/>
<path opacity="0.34" d="M228.682 746.564H234.727V752.599H228.682V746.564Z" fill="white"/>
<path opacity="0.47" d="M261.844 754.496H267.889V760.532H261.844V754.496Z" fill="white"/>
<path opacity="0.41" d="M253.553 754.496H259.599V760.532H253.553V754.496Z" fill="white"/>
<path opacity="0.3" d="M245.263 754.496H251.308V760.532H245.263V754.496Z" fill="white"/>
<path opacity="0.33" d="M236.972 754.496H243.018V760.532H236.972V754.496Z" fill="white"/>
<path opacity="0.12" d="M228.682 754.496H234.727V760.532H228.682V754.496Z" fill="white"/>
<path opacity="0.24" d="M261.844 762.428H267.889V768.464H261.844V762.428Z" fill="white"/>
<path opacity="0.29" d="M253.553 762.428H259.599V768.464H253.553V762.428Z" fill="white"/>
<path opacity="0.27" d="M236.972 762.428H243.018V768.464H236.972V762.428Z" fill="white"/>
<path opacity="0.04" d="M228.682 762.428H234.727V768.464H228.682V762.428Z" fill="white"/>
<path opacity="0.11" d="M261.844 770.361H267.889V776.396H261.844V770.361Z" fill="white"/>
<path opacity="0.05" d="M253.553 770.361H259.599V776.396H253.553V770.361Z" fill="white"/>
<path opacity="0.04" d="M245.263 770.361H251.308V776.396H245.263V770.361Z" fill="white"/>
<path opacity="0.02" d="M236.972 770.361H243.018V776.396H236.972V770.361Z" fill="white"/>
<path opacity="0.3" d="M191.547 635.337H197.592V641.373H191.547V635.337Z" fill="white"/>
<path opacity="0.72" d="M183.602 635.337H189.647V641.373H183.602V635.337Z" fill="white"/>
<path opacity="0.7" d="M175.484 635.337H181.529V641.373H175.484V635.337Z" fill="white"/>
<path opacity="0.52" d="M167.366 635.337H173.411V641.373H167.366V635.337Z" fill="white"/>
<path opacity="0.2" d="M159.248 635.337H165.294V641.373H159.248V635.337Z" fill="white"/>
<path opacity="0.32" d="M151.303 635.337H157.348V641.373H151.303V635.337Z" fill="white"/>
<path opacity="0.13" d="M143.185 635.337H149.23V641.373H143.185V635.337Z" fill="white"/>
<path opacity="0.38" d="M135.067 635.337H141.113V641.373H135.067V635.337Z" fill="white"/>
<path opacity="0.61" d="M127.122 635.337H133.167V641.373H127.122V635.337Z" fill="white"/>
<path d="M119.004 635.337H125.05V641.373H119.004V635.337Z" fill="white"/>
<path opacity="0.91" d="M110.887 635.337H116.932V641.373H110.887V635.337Z" fill="white"/>
<path opacity="0.66" d="M191.547 643.269H197.592V649.305H191.547V643.269Z" fill="white"/>
<path opacity="0.31" d="M183.602 643.269H189.647V649.305H183.602V643.269Z" fill="white"/>
<path opacity="0.95" d="M175.484 643.269H181.529V649.305H175.484V643.269Z" fill="white"/>
<path opacity="0.7" d="M167.366 643.269H173.411V649.305H167.366V643.269Z" fill="white"/>
<path opacity="0.12" d="M159.248 643.269H165.294V649.305H159.248V643.269Z" fill="white"/>
<path opacity="0.24" d="M151.303 643.269H157.348V649.305H151.303V643.269Z" fill="white"/>
<path opacity="0.66" d="M143.185 643.269H149.23V649.305H143.185V643.269Z" fill="white"/>
<path opacity="0.71" d="M135.067 643.269H141.113V649.305H135.067V643.269Z" fill="white"/>
<path opacity="0.42" d="M127.122 643.269H133.167V649.305H127.122V643.269Z" fill="white"/>
<path opacity="0.09" d="M119.004 643.269H125.05V649.305H119.004V643.269Z" fill="white"/>
<path opacity="0.32" d="M110.887 643.269H116.932V649.305H110.887V643.269Z" fill="white"/>
<path opacity="0.65" d="M191.547 651.202H197.592V657.237H191.547V651.202Z" fill="white"/>
<path d="M183.602 651.202H189.647V657.237H183.602V651.202Z" fill="white"/>
<path d="M175.484 651.202H181.529V657.237H175.484V651.202Z" fill="white"/>
<path opacity="0.71" d="M167.366 651.202H173.411V657.237H167.366V651.202Z" fill="white"/>
<path opacity="0.2" d="M159.248 651.202H165.294V657.237H159.248V651.202Z" fill="white"/>
<path opacity="0.19" d="M151.303 651.202H157.348V657.237H151.303V651.202Z" fill="white"/>
<path opacity="0.62" d="M143.185 651.202H149.23V657.237H143.185V651.202Z" fill="white"/>
<path opacity="0.93" d="M135.067 651.202H141.113V657.237H135.067V651.202Z" fill="white"/>
<path opacity="0.56" d="M127.122 651.202H133.167V657.237H127.122V651.202Z" fill="white"/>
<path opacity="0.57" d="M119.004 651.202H125.05V657.237H119.004V651.202Z" fill="white"/>
<path opacity="0.52" d="M110.887 651.202H116.932V657.237H110.887V651.202Z" fill="white"/>
<path opacity="0.74" d="M191.547 659.134H197.592V665.17H191.547V659.134Z" fill="white"/>
<path opacity="0.56" d="M183.602 659.134H189.647V665.17H183.602V659.134Z" fill="white"/>
<path opacity="0.78" d="M175.484 659.134H181.529V665.17H175.484V659.134Z" fill="white"/>
<path opacity="0.41" d="M167.366 659.134H173.411V665.17H167.366V659.134Z" fill="white"/>
<path opacity="0.14" d="M159.248 659.134H165.294V665.17H159.248V659.134Z" fill="white"/>
<path opacity="0.28" d="M151.303 659.134H157.348V665.17H151.303V659.134Z" fill="white"/>
<path opacity="0.36" d="M143.185 659.134H149.23V665.17H143.185V659.134Z" fill="white"/>
<path opacity="0.14" d="M135.067 659.134H141.113V665.17H135.067V659.134Z" fill="white"/>
<path opacity="0.5" d="M127.122 659.134H133.167V665.17H127.122V659.134Z" fill="white"/>
<path opacity="0.98" d="M119.004 659.134H125.05V665.17H119.004V659.134Z" fill="white"/>
<path opacity="0.59" d="M110.887 659.134H116.932V665.17H110.887V659.134Z" fill="white"/>
<path opacity="0.07" d="M191.547 667.067H197.592V673.102H191.547V667.067Z" fill="white"/>
<path opacity="0.1" d="M183.602 667.067H189.647V673.102H183.602V667.067Z" fill="white"/>
<path opacity="0.88" d="M175.484 667.067H181.529V673.102H175.484V667.067Z" fill="white"/>
<path opacity="0.68" d="M167.366 667.067H173.411V673.102H167.366V667.067Z" fill="white"/>
<path opacity="0.81" d="M159.248 667.067H165.294V673.102H159.248V667.067Z" fill="white"/>
<path opacity="0.62" d="M151.303 667.067H157.348V673.102H151.303V667.067Z" fill="white"/>
<path opacity="0.97" d="M143.185 667.067H149.23V673.102H143.185V667.067Z" fill="white"/>
<path opacity="0.81" d="M135.067 667.067H141.113V673.102H135.067V667.067Z" fill="white"/>
<path opacity="0.79" d="M127.122 667.067H133.167V673.102H127.122V667.067Z" fill="white"/>
<path opacity="0.03" d="M119.004 667.067H125.05V673.102H119.004V667.067Z" fill="white"/>
<path opacity="0.95" d="M110.887 667.067H116.932V673.102H110.887V667.067Z" fill="white"/>
<path opacity="0.62" d="M191.547 674.999H197.592V681.035H191.547V674.999Z" fill="white"/>
<path opacity="0.22" d="M183.602 674.999H189.647V681.035H183.602V674.999Z" fill="white"/>
<path opacity="0.42" d="M175.484 674.999H181.529V681.035H175.484V674.999Z" fill="white"/>
<path opacity="0.56" d="M167.366 674.999H173.411V681.035H167.366V674.999Z" fill="white"/>
<path opacity="0.03" d="M159.248 674.999H165.294V681.035H159.248V674.999Z" fill="white"/>
<path opacity="0.64" d="M151.303 674.999H157.348V681.035H151.303V674.999Z" fill="white"/>
<path opacity="0.82" d="M143.185 674.999H149.23V681.035H143.185V674.999Z" fill="white"/>
<path opacity="0.52" d="M135.067 674.999H141.113V681.035H135.067V674.999Z" fill="white"/>
<path opacity="0.46" d="M127.122 674.999H133.167V681.035H127.122V674.999Z" fill="white"/>
<path opacity="0.27" d="M119.004 674.999H125.05V681.035H119.004V674.999Z" fill="white"/>
<path opacity="0.46" d="M110.887 674.999H116.932V681.035H110.887V674.999Z" fill="white"/>
<path opacity="0.66" d="M191.547 683.104H197.592V689.14H191.547V683.104Z" fill="white"/>
<path opacity="0.7" d="M183.602 683.104H189.647V689.14H183.602V683.104Z" fill="white"/>
<path opacity="0.94" d="M175.484 683.104H181.529V689.14H175.484V683.104Z" fill="white"/>
<path opacity="0.5" d="M167.366 683.104H173.411V689.14H167.366V683.104Z" fill="white"/>
<path opacity="0.12" d="M159.248 683.104H165.294V689.14H159.248V683.104Z" fill="white"/>
<path opacity="0.36" d="M151.303 683.104H157.348V689.14H151.303V683.104Z" fill="white"/>
<path opacity="0.51" d="M143.185 683.104H149.23V689.14H143.185V683.104Z" fill="white"/>
<path opacity="0.37" d="M135.067 683.104H141.113V689.14H135.067V683.104Z" fill="white"/>
<path opacity="0.66" d="M127.122 683.104H133.167V689.14H127.122V683.104Z" fill="white"/>
<path opacity="0.42" d="M119.004 683.104H125.05V689.14H119.004V683.104Z" fill="white"/>
<path opacity="0.5" d="M110.887 683.104H116.932V689.14H110.887V683.104Z" fill="white"/>
<path opacity="0.52" d="M191.547 691.036H197.592V697.072H191.547V691.036Z" fill="white"/>
<path opacity="0.61" d="M183.602 691.036H189.647V697.072H183.602V691.036Z" fill="white"/>
<path opacity="0.84" d="M175.484 691.036H181.529V697.072H175.484V691.036Z" fill="white"/>
<path opacity="0.89" d="M167.366 691.036H173.411V697.072H167.366V691.036Z" fill="white"/>
<path opacity="0.33" d="M159.248 691.036H165.294V697.072H159.248V691.036Z" fill="white"/>
<path opacity="0.25" d="M151.303 691.036H157.348V697.072H151.303V691.036Z" fill="white"/>
<path opacity="0.95" d="M143.185 691.036H149.23V697.072H143.185V691.036Z" fill="white"/>
<path opacity="0.09" d="M135.067 691.036H141.113V697.072H135.067V691.036Z" fill="white"/>
<path opacity="0.44" d="M127.122 691.036H133.167V697.072H127.122V691.036Z" fill="white"/>
<path opacity="0.51" d="M119.004 691.036H125.05V697.072H119.004V691.036Z" fill="white"/>
<path opacity="0.97" d="M110.887 691.036H116.932V697.072H110.887V691.036Z" fill="white"/>
<path opacity="0.26" d="M191.547 698.969H197.592V705.004H191.547V698.969Z" fill="white"/>
<path opacity="0.92" d="M183.602 698.969H189.647V705.004H183.602V698.969Z" fill="white"/>
<path opacity="0.33" d="M175.484 698.969H181.529V705.004H175.484V698.969Z" fill="white"/>
<path opacity="0.23" d="M167.366 698.969H173.411V705.004H167.366V698.969Z" fill="white"/>
<path opacity="0.42" d="M159.248 698.969H165.294V705.004H159.248V698.969Z" fill="white"/>
<path opacity="0.57" d="M151.303 698.969H157.348V705.004H151.303V698.969Z" fill="white"/>
<path opacity="0.73" d="M143.185 698.969H149.23V705.004H143.185V698.969Z" fill="white"/>
<path opacity="0.87" d="M135.067 698.969H141.113V705.004H135.067V698.969Z" fill="white"/>
<path opacity="0.22" d="M127.122 698.969H133.167V705.004H127.122V698.969Z" fill="white"/>
<path opacity="0.89" d="M119.004 698.969H125.05V705.004H119.004V698.969Z" fill="white"/>
<path opacity="0.73" d="M110.887 698.969H116.932V705.004H110.887V698.969Z" fill="white"/>
<path opacity="0.35" d="M191.547 706.901H197.592V712.937H191.547V706.901Z" fill="white"/>
<path opacity="0.81" d="M183.602 706.901H189.647V712.937H183.602V706.901Z" fill="white"/>
<path opacity="0.56" d="M175.484 706.901H181.529V712.937H175.484V706.901Z" fill="white"/>
<path opacity="0.81" d="M167.366 706.901H173.411V712.937H167.366V706.901Z" fill="white"/>
<path opacity="0.87" d="M159.248 706.901H165.294V712.937H159.248V706.901Z" fill="white"/>
<path opacity="0.39" d="M151.303 706.901H157.348V712.937H151.303V706.901Z" fill="white"/>
<path opacity="0.31" d="M143.185 706.901H149.23V712.937H143.185V706.901Z" fill="white"/>
<path opacity="0.98" d="M135.067 706.901H141.113V712.937H135.067V706.901Z" fill="white"/>
<path opacity="0.17" d="M127.122 706.901H133.167V712.937H127.122V706.901Z" fill="white"/>
<path opacity="0.06" d="M119.004 706.901H125.05V712.937H119.004V706.901Z" fill="white"/>
<path opacity="0.57" d="M110.887 706.901H116.932V712.937H110.887V706.901Z" fill="white"/>
<path opacity="0.67" d="M191.547 714.834H197.592V720.87H191.547V714.834Z" fill="white"/>
<path opacity="0.83" d="M183.602 714.834H189.647V720.87H183.602V714.834Z" fill="white"/>
<path opacity="0.99" d="M175.484 714.834H181.529V720.87H175.484V714.834Z" fill="white"/>
<path opacity="0.62" d="M167.366 714.834H173.411V720.87H167.366V714.834Z" fill="white"/>
<path opacity="0.87" d="M159.248 714.834H165.294V720.87H159.248V714.834Z" fill="white"/>
<path opacity="0.14" d="M151.303 714.834H157.348V720.87H151.303V714.834Z" fill="white"/>
<path opacity="0.12" d="M143.185 714.834H149.23V720.87H143.185V714.834Z" fill="white"/>
<path opacity="0.11" d="M135.067 714.834H141.113V720.87H135.067V714.834Z" fill="white"/>
<path opacity="0.39" d="M127.122 714.834H133.167V720.87H127.122V714.834Z" fill="white"/>
<path opacity="0.58" d="M119.004 714.834H125.05V720.87H119.004V714.834Z" fill="white"/>
<path opacity="0.54" d="M110.887 714.834H116.932V720.87H110.887V714.834Z" fill="white"/>
<path opacity="0.99" d="M191.547 722.766H197.592V728.802H191.547V722.766Z" fill="white"/>
<path opacity="0.28" d="M183.602 722.766H189.647V728.802H183.602V722.766Z" fill="white"/>
<path opacity="0.78" d="M175.484 722.766H181.529V728.802H175.484V722.766Z" fill="white"/>
<path opacity="0.65" d="M167.366 722.766H173.411V728.802H167.366V722.766Z" fill="white"/>
<path opacity="0.32" d="M159.248 722.766H165.294V728.802H159.248V722.766Z" fill="white"/>
<path opacity="0.55" d="M151.303 722.766H157.348V728.802H151.303V722.766Z" fill="white"/>
<path opacity="0.4" d="M143.185 722.766H149.23V728.802H143.185V722.766Z" fill="white"/>
<path opacity="0.22" d="M135.067 722.766H141.113V728.802H135.067V722.766Z" fill="white"/>
<path opacity="0.87" d="M127.122 722.766H133.167V728.802H127.122V722.766Z" fill="white"/>
<path opacity="0.02" d="M119.004 722.766H125.05V728.802H119.004V722.766Z" fill="white"/>
<path opacity="0.39" d="M110.887 722.766H116.932V728.802H110.887V722.766Z" fill="white"/>
<path opacity="0.89" d="M191.547 730.699H197.592V736.734H191.547V730.699Z" fill="white"/>
<path opacity="0.97" d="M183.602 730.699H189.647V736.734H183.602V730.699Z" fill="white"/>
<path opacity="0.79" d="M175.484 730.699H181.529V736.734H175.484V730.699Z" fill="white"/>
<path opacity="0.41" d="M167.366 730.699H173.411V736.734H167.366V730.699Z" fill="white"/>
<path opacity="0.13" d="M159.248 730.699H165.294V736.734H159.248V730.699Z" fill="white"/>
<path opacity="0.9" d="M151.303 730.699H157.348V736.734H151.303V730.699Z" fill="white"/>
<path opacity="0.98" d="M143.185 730.699H149.23V736.734H143.185V730.699Z" fill="white"/>
<path opacity="0.67" d="M135.067 730.699H141.113V736.734H135.067V730.699Z" fill="white"/>
<path opacity="0.65" d="M127.122 730.699H133.167V736.734H127.122V730.699Z" fill="white"/>
<path opacity="0.89" d="M119.004 730.699H125.05V736.734H119.004V730.699Z" fill="white"/>
<path opacity="0.98" d="M110.887 730.699H116.932V736.734H110.887V730.699Z" fill="white"/>
<path opacity="0.29" d="M191.547 738.631H197.592V744.667H191.547V738.631Z" fill="white"/>
<path opacity="0.74" d="M183.602 738.631H189.647V744.667H183.602V738.631Z" fill="white"/>
<path opacity="0.64" d="M175.484 738.631H181.529V744.667H175.484V738.631Z" fill="white"/>
<path opacity="0.65" d="M167.366 738.631H173.411V744.667H167.366V738.631Z" fill="white"/>
<path opacity="0.07" d="M159.248 738.631H165.294V744.667H159.248V738.631Z" fill="white"/>
<path opacity="0.16" d="M151.303 738.631H157.348V744.667H151.303V738.631Z" fill="white"/>
<path opacity="0.84" d="M143.185 738.631H149.23V744.667H143.185V738.631Z" fill="white"/>
<path opacity="0.88" d="M135.067 738.631H141.113V744.667H135.067V738.631Z" fill="white"/>
<path opacity="0.57" d="M127.122 738.631H133.167V744.667H127.122V738.631Z" fill="white"/>
<path opacity="0.31" d="M119.004 738.631H125.05V744.667H119.004V738.631Z" fill="white"/>
<path opacity="0.03" d="M110.887 738.631H116.932V744.667H110.887V738.631Z" fill="white"/>
<path opacity="0.3" d="M191.547 746.564H197.592V752.599H191.547V746.564Z" fill="white"/>
<path opacity="0.59" d="M183.602 746.564H189.647V752.599H183.602V746.564Z" fill="white"/>
<path opacity="0.93" d="M175.484 746.564H181.529V752.599H175.484V746.564Z" fill="white"/>
<path opacity="0.06" d="M167.366 746.564H173.411V752.599H167.366V746.564Z" fill="white"/>
<path opacity="0.74" d="M159.248 746.564H165.294V752.599H159.248V746.564Z" fill="white"/>
<path opacity="0.22" d="M151.303 746.564H157.348V752.599H151.303V746.564Z" fill="white"/>
<path opacity="0.51" d="M143.185 746.564H149.23V752.599H143.185V746.564Z" fill="white"/>
<path opacity="0.7" d="M135.067 746.564H141.113V752.599H135.067V746.564Z" fill="white"/>
<path opacity="0.47" d="M127.122 746.564H133.167V752.599H127.122V746.564Z" fill="white"/>
<path opacity="0.08" d="M119.004 746.564H125.05V752.599H119.004V746.564Z" fill="white"/>
<path opacity="0.93" d="M110.887 746.564H116.932V752.599H110.887V746.564Z" fill="white"/>
<path opacity="0.81" d="M191.547 754.496H197.592V760.532H191.547V754.496Z" fill="white"/>
<path opacity="0.9" d="M183.602 754.496H189.647V760.532H183.602V754.496Z" fill="white"/>
<path opacity="0.55" d="M175.484 754.496H181.529V760.532H175.484V754.496Z" fill="white"/>
<path opacity="0.14" d="M167.366 754.496H173.411V760.532H167.366V754.496Z" fill="white"/>
<path opacity="0.66" d="M159.248 754.496H165.294V760.532H159.248V754.496Z" fill="white"/>
<path opacity="0.92" d="M151.303 754.496H157.348V760.532H151.303V754.496Z" fill="white"/>
<path opacity="0.4" d="M143.185 754.496H149.23V760.532H143.185V754.496Z" fill="white"/>
<path opacity="0.6" d="M135.067 754.496H141.113V760.532H135.067V754.496Z" fill="white"/>
<path opacity="0.99" d="M127.122 754.496H133.167V760.532H127.122V754.496Z" fill="white"/>
<path opacity="0.68" d="M119.004 754.496H125.05V760.532H119.004V754.496Z" fill="white"/>
<path opacity="0.01" d="M110.887 754.496H116.932V760.532H110.887V754.496Z" fill="white"/>
<path opacity="0.82" d="M191.547 762.428H197.592V768.464H191.547V762.428Z" fill="white"/>
<path opacity="0.92" d="M183.602 762.428H189.647V768.464H183.602V762.428Z" fill="white"/>
<path opacity="0.29" d="M175.484 762.428H181.529V768.464H175.484V762.428Z" fill="white"/>
<path opacity="0.73" d="M167.366 762.428H173.411V768.464H167.366V762.428Z" fill="white"/>
<path opacity="0.42" d="M159.248 762.428H165.294V768.464H159.248V762.428Z" fill="white"/>
<path opacity="0.06" d="M151.303 762.428H157.348V768.464H151.303V762.428Z" fill="white"/>
<path opacity="0.7" d="M143.185 762.428H149.23V768.464H143.185V762.428Z" fill="white"/>
<path opacity="0.97" d="M135.067 762.428H141.113V768.464H135.067V762.428Z" fill="white"/>
<path opacity="0.51" d="M127.122 762.428H133.167V768.464H127.122V762.428Z" fill="white"/>
<path opacity="0.69" d="M119.004 762.428H125.05V768.464H119.004V762.428Z" fill="white"/>
<path opacity="0.49" d="M110.887 762.428H116.932V768.464H110.887V762.428Z" fill="white"/>
<path opacity="0.45" d="M191.547 770.361H197.592V776.396H191.547V770.361Z" fill="white"/>
<path opacity="0.46" d="M183.602 770.361H189.647V776.396H183.602V770.361Z" fill="white"/>
<path opacity="0.04" d="M175.484 770.361H181.529V776.396H175.484V770.361Z" fill="white"/>
<path opacity="0.56" d="M167.366 770.361H173.411V776.396H167.366V770.361Z" fill="white"/>
<path opacity="0.4" d="M159.248 770.361H165.294V776.396H159.248V770.361Z" fill="white"/>
<path opacity="0.59" d="M151.303 770.361H157.348V776.396H151.303V770.361Z" fill="white"/>
<path opacity="0.82" d="M143.185 770.361H149.23V776.396H143.185V770.361Z" fill="white"/>
<path opacity="0.99" d="M135.067 770.361H141.113V776.396H135.067V770.361Z" fill="white"/>
<path opacity="0.1" d="M127.122 770.361H133.167V776.396H127.122V770.361Z" fill="white"/>
<path opacity="0.87" d="M119.004 770.361H125.05V776.396H119.004V770.361Z" fill="white"/>
<path d="M110.887 770.361H116.932V776.396H110.887V770.361Z" fill="white"/>
<path d="M293.625 596.538H350.622V774.845H293.625V596.538Z" fill="#333333"/>
<path d="M324.714 587.57H350.622V597.572H324.714V587.57Z" fill="#333333"/>
<path d="M335.596 581.707H350.622V587.57H335.596V581.707Z" fill="#333333"/>
<path opacity="0.25" d="M317.633 609.126H326.96V618.438H317.633V609.126Z" fill="white"/>
<path opacity="0.15" d="M317.633 632.061H326.96V641.373H317.633V632.061Z" fill="white"/>
<path opacity="0.19" d="M317.633 677.759H326.96V687.071H317.633V677.759Z" fill="white"/>
<path opacity="0.17" d="M317.633 700.521H326.96V709.833H317.633V700.521Z" fill="white"/>
<path opacity="0.22" d="M317.633 723.284H326.96V732.596H317.633V723.284Z" fill="white"/>
<path d="M317.633 746.219H326.96V755.531H317.633V746.219Z" fill="white"/>
<path d="M335.941 695.865H389.312V711.558H335.941V695.865Z" fill="#333333"/>
<path d="M309.342 695.865H335.941V711.558H309.342V695.865Z" fill="#4D4D4D"/>
<path d="M389.312 695.865L372.73 687.933L335.941 695.865H389.312Z" fill="#333333"/>
<path d="M372.73 687.933L335.941 695.865H309.342L372.73 687.933Z" fill="#4D4D4D"/>
<path d="M323.505 706.902H401.575V778.294H323.505V706.902Z" fill="#333333"/>
<path d="M297.597 706.902H323.505V778.294H297.597V706.902Z" fill="#4D4D4D"/>
<path opacity="0.81" d="M303.642 711.903H317.633V717.076H303.642V711.903Z" fill="white"/>
<path opacity="0.76" d="M303.642 721.387H317.633V726.56H303.642V721.387Z" fill="white"/>
<path opacity="0.32" d="M303.642 730.871H317.633V736.045H303.642V730.871Z" fill="white"/>
<path opacity="0.49" d="M303.642 740.528H317.633V745.702H303.642V740.528Z" fill="white"/>
<path opacity="0.99" d="M303.642 759.497H317.633V764.67H303.642V759.497Z" fill="white"/>
<path opacity="0.1" d="M375.148 711.903H389.139V717.076H375.148V711.903Z" fill="white"/>
<path opacity="0.04" d="M355.631 711.903H369.622V717.076H355.631V711.903Z" fill="white"/>
<path opacity="0.07" d="M335.941 711.903H349.931V717.076H335.941V711.903Z" fill="white"/>
<path opacity="0.06" d="M375.148 721.387H389.139V726.56H375.148V721.387Z" fill="white"/>
<path opacity="0.44" d="M355.631 721.387H369.622V726.56H355.631V721.387Z" fill="white"/>
<path opacity="0.24" d="M335.941 721.387H349.931V726.56H335.941V721.387Z" fill="white"/>
<path opacity="0.55" d="M375.148 730.871H389.139V736.045H375.148V730.871Z" fill="white"/>
<path opacity="0.02" d="M355.631 730.871H369.622V736.045H355.631V730.871Z" fill="white"/>
<path opacity="0.14" d="M335.941 730.871H349.931V736.045H335.941V730.871Z" fill="white"/>
<path opacity="0.43" d="M375.148 740.528H389.139V745.702H375.148V740.528Z" fill="white"/>
<path opacity="0.41" d="M355.631 740.528H369.622V745.702H355.631V740.528Z" fill="white"/>
<path opacity="0.46" d="M335.941 740.528H349.931V745.702H335.941V740.528Z" fill="white"/>
<path opacity="0.45" d="M375.148 750.013H389.139V755.186H375.148V750.013Z" fill="white"/>
<path opacity="0.33" d="M355.631 750.013H369.622V755.186H355.631V750.013Z" fill="white"/>
<path opacity="0.05" d="M335.941 750.013H349.931V755.186H335.941V750.013Z" fill="white"/>
<path opacity="0.27" d="M375.148 759.497H389.139V764.671H375.148V759.497Z" fill="white"/>
<path opacity="0.15" d="M355.631 759.497H369.622V764.671H355.631V759.497Z" fill="white"/>
<path opacity="0.7" d="M335.941 759.497H349.931V764.671H335.941V759.497Z" fill="white"/>
<path d="M464.79 795.194C464.272 808.644 474.635 820.198 488.28 820.715C501.752 821.233 513.325 810.714 513.843 797.263C514.361 783.812 503.998 772.259 490.353 771.741C476.881 771.224 465.481 781.743 464.79 795.194Z" fill="#333333"/>
<path d="M468.935 788.468C468.59 796.228 474.635 802.781 482.408 803.126C490.18 803.471 496.743 797.435 497.089 789.675C497.434 781.915 491.389 775.362 483.617 775.017C475.844 774.673 469.281 780.708 468.935 788.468Z" fill="#4D4D4D"/>
<path d="M528.697 781.053C528.697 788.641 534.742 794.676 542.342 794.676C549.942 794.676 555.987 788.641 555.987 781.053C555.987 773.466 549.942 767.43 542.342 767.43C534.915 767.43 528.697 773.466 528.697 781.053Z" fill="#333333"/>
<path d="M533.533 769.327C533.533 774.5 537.506 778.639 542.514 778.639C547.523 778.639 551.496 774.5 551.496 769.327C551.496 764.154 547.523 760.015 542.514 760.015C537.506 760.187 533.533 764.326 533.533 769.327Z" fill="#333333"/>
<path d="M530.769 781.053C530.769 785.364 534.224 788.986 538.715 788.986C543.033 788.986 546.66 785.537 546.66 781.053C546.66 776.742 543.205 773.121 538.715 773.121C534.397 773.293 530.769 776.742 530.769 781.053Z" fill="#4D4D4D"/>
<path d="M534.742 770.534C534.742 773.81 537.333 776.57 540.787 776.57C544.069 776.57 546.832 773.983 546.832 770.534C546.832 767.258 544.242 764.671 540.787 764.671C537.333 764.498 534.742 767.258 534.742 770.534Z" fill="#4D4D4D"/>
<path d="M558.923 792.434C558.923 802.091 566.868 810.024 576.54 810.024C586.213 810.024 594.158 802.091 594.158 792.434C594.158 782.777 586.213 774.845 576.54 774.845C566.868 774.845 558.923 782.605 558.923 792.434Z" fill="#333333"/>
<path d="M516.261 779.329C516.261 781.398 517.815 782.95 519.715 782.95C521.615 782.95 523.17 781.398 523.17 779.329C523.17 777.259 521.615 775.707 519.715 775.707C517.815 775.707 516.261 777.259 516.261 779.329Z" fill="#333333"/>
<path d="M441.991 775.018C441.991 781.743 447.346 787.089 454.082 787.089C460.818 787.089 466.172 781.743 466.172 775.018C466.172 768.292 460.818 762.947 454.082 762.947C447.346 762.947 441.991 768.292 441.991 775.018Z" fill="#333333"/>
<path d="M437.846 787.089C437.846 796.056 445.1 803.299 454.082 803.299C463.063 803.299 470.317 796.056 470.317 787.089C470.317 778.122 463.063 770.879 454.082 770.879C445.1 770.879 437.846 778.122 437.846 787.089Z" fill="#333333"/>
<path d="M446.136 764.671C446.136 769.155 449.764 772.948 454.082 772.948C458.4 772.948 462.027 769.327 462.027 764.671C462.027 760.188 458.4 756.394 454.082 756.394C449.764 756.394 446.136 760.188 446.136 764.671Z" fill="#333333"/>
<path d="M443.891 775.018C443.891 778.812 447 781.916 450.8 781.916C454.6 781.916 457.709 778.812 457.709 775.018C457.709 771.224 454.6 768.12 450.8 768.12C447 768.12 443.891 771.224 443.891 775.018Z" fill="#4D4D4D"/>
<path d="M447.173 765.706C447.173 768.637 449.591 771.052 452.527 771.052C455.463 771.052 457.881 768.637 457.881 765.706C457.881 762.774 455.463 760.36 452.527 760.36C449.591 760.36 447.173 762.774 447.173 765.706Z" fill="#4D4D4D"/>
<path d="M396.911 790.193C396.911 799.16 404.165 806.403 413.147 806.403C422.128 806.403 429.383 799.16 429.383 790.193C429.383 781.226 422.128 773.983 413.147 773.983C404.165 774.156 396.911 781.398 396.911 790.193Z" fill="#333333"/>
<path d="M402.611 776.397C402.611 782.433 407.447 787.434 413.147 787.434C419.02 787.434 423.856 782.605 423.856 776.397C423.856 770.362 419.02 765.533 413.147 765.533C407.275 765.533 402.611 770.362 402.611 776.397Z" fill="#333333"/>
<path d="M403.993 777.777C403.993 781.743 407.102 784.847 411.074 784.847C415.047 784.847 418.156 781.743 418.156 777.777C418.156 773.811 415.047 770.707 411.074 770.707C407.102 770.707 403.993 773.811 403.993 777.777Z" fill="#4D4D4D"/>
<path d="M132.649 796.746C132.649 811.576 144.567 823.475 159.421 823.475C174.275 823.475 186.193 811.576 186.193 796.746C186.193 781.916 174.275 770.017 159.421 770.017C144.567 770.017 132.649 782.088 132.649 796.746Z" fill="#333333"/>
<path d="M136.622 789.331C136.622 797.781 143.531 804.678 151.994 804.678C160.457 804.678 167.366 797.781 167.366 789.331C167.366 780.881 160.457 773.983 151.994 773.983C143.531 773.983 136.622 780.881 136.622 789.331Z" fill="#4D4D4D"/>
<path d="M98.2778 785.192C98.2778 797.608 108.468 807.782 120.904 807.782C133.34 807.782 143.531 797.608 143.531 785.192C143.531 772.776 133.34 762.602 120.904 762.602C108.296 762.602 98.2778 772.604 98.2778 785.192Z" fill="#333333"/>
<path d="M101.732 778.812C101.732 786.054 107.605 791.745 114.686 791.745C121.941 791.745 127.64 785.882 127.64 778.812C127.64 771.741 121.768 765.878 114.686 765.878C107.605 765.878 101.732 771.741 101.732 778.812Z" fill="#4D4D4D"/>
<path d="M155.966 788.813C155.966 801.229 166.157 811.404 178.593 811.404C191.029 811.404 201.219 801.229 201.219 788.813C201.219 776.397 191.029 766.223 178.593 766.223C165.984 766.223 155.966 776.225 155.966 788.813Z" fill="#333333"/>
<path d="M159.421 782.433C159.421 789.675 165.293 795.366 172.375 795.366C179.456 795.366 185.329 789.503 185.329 782.433C185.329 775.19 179.456 769.5 172.375 769.5C165.293 769.5 159.421 775.19 159.421 782.433Z" fill="#4D4D4D"/>
<path d="M225.745 793.987C225.745 806.403 235.936 816.577 248.372 816.577C260.808 816.577 270.998 806.403 270.998 793.987C270.998 781.571 260.808 771.397 248.372 771.397C235.763 771.397 225.745 781.571 225.745 793.987Z" fill="#333333"/>
<path d="M229.2 787.607C229.2 794.849 235.072 800.54 242.154 800.54C249.408 800.54 255.108 794.677 255.108 787.607C255.108 780.364 249.235 774.673 242.154 774.673C235.072 774.673 229.2 780.536 229.2 787.607Z" fill="#4D4D4D"/>
<path d="M253.035 790.193C253.035 802.609 263.226 812.783 275.662 812.783C288.098 812.783 298.288 802.609 298.288 790.193C298.288 777.777 288.098 767.603 275.662 767.603C263.226 767.603 253.035 777.605 253.035 790.193Z" fill="#333333"/>
<path d="M256.49 783.813C256.49 791.055 262.362 796.746 269.444 796.746C276.698 796.746 282.398 790.883 282.398 783.813C282.398 776.57 276.525 770.879 269.444 770.879C262.362 770.879 256.49 776.57 256.49 783.813Z" fill="#4D4D4D"/>
<path d="M235.418 786.571C235.418 793.814 241.29 799.505 248.372 799.505C255.626 799.505 261.326 793.641 261.326 786.571C261.326 779.329 255.453 773.638 248.372 773.638C241.118 773.638 235.418 779.501 235.418 786.571Z" fill="#4D4D4D"/>
<path d="M331.968 787.606C331.968 795.711 338.532 802.436 346.822 802.436C354.94 802.436 361.676 795.883 361.676 787.606C361.676 779.501 355.113 772.776 346.822 772.776C338.532 772.948 331.968 779.501 331.968 787.606Z" fill="#333333"/>
<path d="M334.214 783.467C334.214 788.123 338.014 791.917 342.677 791.917C347.34 791.917 351.14 788.123 351.14 783.467C351.14 778.811 347.34 775.017 342.677 775.017C338.014 775.017 334.214 778.811 334.214 783.467Z" fill="#4D4D4D"/>
</g>
<defs>
<clipPath id="clip0_1_11586">
<rect width="1127" height="776" fill="white" transform="matrix(-1 0 0 1 1127 0)"/>
</clipPath>
</defs>
</svg>
